<svg width="13" height="13" viewBox="0 0 13 13" fill="none" xmlns="http://www.w3.org/2000/svg">
<path d="M8.58211 4.41789C8.97263 4.80842 8.97263 5.44158 8.58211 5.83211L7.91421 6.5L8.58211 7.16789C8.97263 7.55842 8.97263 8.19158 8.58211 8.58211C8.19158 8.97263 7.55842 8.97263 7.16789 8.58211L6.5 7.91421L5.83211 8.58211C5.44158 8.97263 4.80842 8.97263 4.41789 8.58211C4.02737 8.19158 4.02737 7.55842 4.41789 7.16789L5.08579 6.5L4.41789 5.83211C4.02737 5.44158 4.02737 4.80842 4.41789 4.41789C4.80842 4.02737 5.44158 4.02737 5.83211 4.41789L6.5 5.08579L7.16789 4.41789C7.55842 4.02737 8.19158 4.02737 8.58211 4.41789Z" fill="#DC3545"/>
<path fill-rule="evenodd" clip-rule="evenodd" d="M0.916687 6.49999C0.916687 3.4164 3.41643 0.916656 6.50002 0.916656C9.58361 0.916656 12.0834 3.4164 12.0834 6.49999C12.0834 9.58358 9.58361 12.0833 6.50002 12.0833C3.41643 12.0833 0.916687 9.58358 0.916687 6.49999ZM6.50002 2.91666C4.521 2.91666 2.91669 4.52097 2.91669 6.49999C2.91669 8.47901 4.521 10.0833 6.50002 10.0833C8.47904 10.0833 10.0834 8.47901 10.0834 6.49999C10.0834 4.52097 8.47904 2.91666 6.50002 2.91666Z" fill="#DC3545"/>
</svg>
