<svg width="13" height="13" viewBox="0 0 13 13" fill="none" xmlns="http://www.w3.org/2000/svg">
<path fill-rule="evenodd" clip-rule="evenodd" d="M7.95844 3.22428C7.25262 2.90979 6.46404 2.83187 5.71032 3.00217C4.9566 3.17246 4.27812 3.58183 3.77607 4.16923C3.27402 4.75663 2.9753 5.49058 2.92446 6.26163C2.87361 7.03267 3.07338 7.7995 3.49395 8.44773C3.91452 9.09597 4.53337 9.59089 5.25821 9.85868C5.98304 10.1265 6.77502 10.1528 7.51603 9.93368C8.25703 9.71459 8.90737 9.26183 9.37003 8.64294C9.8327 8.02404 10.0829 7.27217 10.0834 6.49945V6.07835C10.0834 5.52607 10.5311 5.07835 11.0834 5.07835C11.6356 5.07835 12.0834 5.52607 12.0834 6.07835V6.50002C12.0827 7.70402 11.6928 8.87612 10.9719 9.84044C10.251 10.8048 9.23769 11.5102 8.0831 11.8516C6.9285 12.193 5.69449 12.152 4.5651 11.7347C3.43571 11.3175 2.47145 10.5463 1.81614 9.53629C1.16083 8.52624 0.84957 7.33143 0.92879 6.13003C1.00801 4.92864 1.47346 3.78504 2.25573 2.86979C3.03799 1.95454 4.09516 1.31668 5.26956 1.05134C6.44396 0.786 7.67267 0.907396 8.77244 1.39743C9.27691 1.62221 9.50365 2.21338 9.27887 2.71785C9.05409 3.22233 8.46291 3.44906 7.95844 3.22428ZM11.7901 2.12587C12.1808 2.5162 12.1811 3.14937 11.7908 3.54009L7.20749 8.128C7.01998 8.31569 6.76558 8.42118 6.50028 8.42125C6.23497 8.42132 5.98052 8.31595 5.79292 8.12836L4.41792 6.75336C4.02739 6.36283 4.02739 5.72967 4.41792 5.33914C4.80844 4.94862 5.44161 4.94862 5.83213 5.33914L6.49967 6.00668L10.3759 2.12658C10.7662 1.73586 11.3994 1.73554 11.7901 2.12587Z" fill="#1BA345"/>
</svg>
