<svg width="17" height="17" viewBox="0 0 17 17" fill="none" xmlns="http://www.w3.org/2000/svg">
<g clip-path="url(#clip0)">
<path d="M0.708313 0.708344L16.2916 16.2917" stroke="#C5C5C5" stroke-width="2" stroke-linecap="round" stroke-linejoin="round"/>
<path d="M11.8433 7.83417C12.4235 8.11732 12.9661 8.47188 13.4583 8.88958" stroke="#C5C5C5" stroke-width="2" stroke-linecap="round" stroke-linejoin="round"/>
<path d="M3.54169 8.88957C4.5915 8.01183 5.85501 7.42772 7.20377 7.19666" stroke="#C5C5C5" stroke-width="2" stroke-linecap="round" stroke-linejoin="round"/>
<path d="M7.58624 3.57708C9.10379 3.4548 10.6304 3.63953 12.075 4.12025C13.5196 4.60096 14.8525 5.3678 15.9942 6.375" stroke="#C5C5C5" stroke-width="2" stroke-linecap="round" stroke-linejoin="round"/>
<path d="M1.00586 6.37499C1.98843 5.50647 3.11506 4.81611 4.33503 4.33499" stroke="#C5C5C5" stroke-width="2" stroke-linecap="round" stroke-linejoin="round"/>
<path d="M6.04205 11.4112C6.76115 10.9004 7.6214 10.6259 8.50351 10.6259C9.38562 10.6259 10.2459 10.9004 10.965 11.4112" stroke="#C5C5C5" stroke-width="2" stroke-linecap="round" stroke-linejoin="round"/>
<path d="M8.5 14.1667H8.50625" stroke="#C5C5C5" stroke-width="2" stroke-linecap="round" stroke-linejoin="round"/>
</g>
<defs>
<clipPath id="clip0">
<rect width="17" height="17" fill="white"/>
</clipPath>
</defs>
</svg>
